<svg width="967" height="301" viewBox="0 0 967 301" fill="none" xmlns="http://www.w3.org/2000/svg">
<path d="M108.304 300.917C105.672 300.917 103.148 299.872 101.287 298.01C99.4255 296.149 98.38 293.625 98.38 290.993V247.347C98.38 225.695 80.7667 208.081 59.1147 208.081C37.4627 208.081 19.848 225.694 19.848 247.348V290.992C19.848 293.624 18.8024 296.148 16.9413 298.009C15.0802 299.87 12.556 300.916 9.92399 300.916C7.29198 300.916 4.76777 299.87 2.90666 298.009C1.04555 296.148 0 293.624 0 290.992V247.345C0 214.749 26.52 188.23 59.1147 188.23C91.7093 188.23 118.228 214.75 118.228 247.345V290.992C118.228 293.624 117.182 296.148 115.321 298.009C113.46 299.87 110.936 300.917 108.304 300.917Z" fill="#FF3E5A"/>
<path d="M206.686 300.917C204.054 300.917 201.529 299.872 199.668 298.01C197.807 296.149 196.762 293.625 196.762 290.993V247.347C196.762 225.695 179.148 208.081 157.496 208.081C135.844 208.081 118.23 225.694 118.23 247.348V290.992C118.23 292.295 117.973 293.586 117.474 294.79C116.975 295.994 116.244 297.088 115.322 298.01C114.401 298.931 113.307 299.662 112.102 300.161C110.898 300.659 109.608 300.916 108.304 300.916C107.001 300.916 105.71 300.659 104.506 300.161C103.302 299.662 102.208 298.931 101.286 298.01C100.364 297.088 99.6333 295.994 99.1344 294.79C98.6356 293.586 98.3789 292.295 98.3789 290.992V247.345C98.3789 214.749 124.899 188.23 157.496 188.23C190.091 188.23 216.61 214.75 216.61 247.345V290.992C216.61 293.624 215.564 296.148 213.703 298.009C211.842 299.87 209.318 300.917 206.686 300.917ZM956.162 300.917C953.53 300.917 951.005 299.872 949.144 298.01C947.283 296.149 946.238 293.625 946.238 290.993V247.347C946.238 225.695 928.623 208.081 906.971 208.081C885.32 208.081 867.704 225.694 867.704 247.348V290.992C867.704 293.624 866.659 296.148 864.798 298.009C862.937 299.87 860.412 300.916 857.78 300.916C855.148 300.916 852.624 299.87 850.763 298.009C848.902 296.148 847.856 293.624 847.856 290.992V247.345C847.856 214.749 874.376 188.23 906.972 188.23C939.567 188.23 966.086 214.75 966.086 247.345V290.992C966.086 293.624 965.04 296.148 963.179 298.009C961.318 299.87 958.794 300.917 956.162 300.917ZM776.094 300.917C744.963 300.917 719.639 275.592 719.639 244.464C719.639 241.832 720.684 239.308 722.546 237.447C724.407 235.585 726.931 234.54 729.563 234.54C732.195 234.54 734.719 235.585 736.58 237.447C738.441 239.308 739.487 241.832 739.487 244.464C739.487 264.648 755.91 281.068 776.094 281.068C796.278 281.068 812.698 264.648 812.698 244.464C812.698 241.832 813.743 239.308 815.604 237.447C817.465 235.585 819.99 234.54 822.622 234.54C823.925 234.54 825.216 234.796 826.42 235.295C827.624 235.793 828.718 236.525 829.64 237.446C830.561 238.368 831.292 239.462 831.791 240.666C832.29 241.87 832.547 243.161 832.547 244.464C832.547 275.592 807.222 300.917 776.094 300.917Z" fill="#FF3E5A"/>
<path d="M822.621 254.612C819.989 254.612 817.465 253.566 815.604 251.705C813.742 249.844 812.697 247.32 812.697 244.688C812.697 224.504 796.277 208.081 776.093 208.081C755.908 208.081 739.486 224.504 739.486 244.688C739.486 247.32 738.441 249.844 736.58 251.705C734.718 253.566 732.194 254.612 729.562 254.612C728.259 254.612 726.968 254.355 725.764 253.857C724.56 253.358 723.466 252.627 722.544 251.706C721.622 250.784 720.891 249.69 720.393 248.486C719.894 247.282 719.637 245.991 719.637 244.688C719.637 213.557 744.962 188.233 776.093 188.233C807.221 188.233 832.546 213.557 832.546 244.686C832.547 245.99 832.29 247.281 831.791 248.485C831.292 249.689 830.561 250.783 829.64 251.705C828.718 252.627 827.624 253.358 826.419 253.857C825.215 254.355 823.924 254.612 822.621 254.612ZM288.376 281.068C268.229 281.068 251.833 264.708 251.773 244.576C251.833 224.442 268.229 208.082 288.376 208.082C308.522 208.082 324.918 224.442 324.978 244.576C324.918 264.709 308.522 281.069 288.376 281.069M344.83 244.464C344.83 244.388 344.821 244.314 344.82 244.238C344.576 213.314 319.356 188.232 288.376 188.232C257.396 188.232 232.176 213.314 231.932 244.238C231.932 244.314 231.921 244.388 231.921 244.465L231.924 244.576L231.921 244.686C231.921 244.762 231.93 244.837 231.932 244.913C232.176 275.833 257.396 300.917 288.376 300.917C301.21 300.917 313.049 296.602 322.541 289.36C323.544 288.596 324.982 289.316 324.982 290.577C324.982 296.01 329.17 300.75 334.602 300.912C335.93 300.953 337.253 300.726 338.493 300.246C339.732 299.766 340.862 299.041 341.816 298.116C342.769 297.191 343.528 296.084 344.046 294.86C344.564 293.636 344.83 292.321 344.83 290.992V244.686L344.828 244.576L344.83 244.464ZM517.737 300.917C497.834 300.917 479.556 291.106 468.545 274.598C457.54 291.106 439.262 300.918 419.356 300.918C386.76 300.918 360.241 274.398 360.241 241.802C360.241 239.17 361.286 236.646 363.148 234.785C365.009 232.924 367.533 231.878 370.165 231.878C371.468 231.878 372.759 232.135 373.963 232.634C375.167 233.132 376.261 233.863 377.183 234.785C378.105 235.706 378.836 236.8 379.335 238.004C379.834 239.209 380.09 240.499 380.09 241.802C380.09 263.456 397.704 281.069 419.357 281.069C432.908 281.069 445.33 274.218 452.577 262.742C456.068 257.224 462.036 253.929 468.545 253.929H468.549C475.058 253.932 481.026 257.226 484.512 262.742C491.762 274.218 504.184 281.068 517.738 281.068C539.389 281.068 557.002 263.454 557.002 241.802C557.002 239.17 558.048 236.646 559.909 234.785C561.77 232.924 564.294 231.878 566.926 231.878C568.23 231.878 569.52 232.135 570.724 232.634C571.929 233.132 573.023 233.863 573.944 234.785C574.866 235.706 575.597 236.8 576.096 238.004C576.595 239.209 576.852 240.499 576.852 241.802C576.852 274.398 550.333 300.917 517.737 300.917Z" fill="#FF3E5A"/>
<path d="M594.448 165.346C590.492 163.986 588.031 160.113 588.024 155.93C587.975 125.768 563.422 101.245 533.248 101.245C511.036 101.245 491.174 114.497 482.647 135.005C480.251 140.762 474.719 144.478 468.547 144.478C462.378 144.478 456.846 140.762 454.451 135.009C445.92 114.497 426.059 101.245 403.847 101.245C373.674 101.245 349.12 125.768 349.071 155.93C349.063 160.113 346.602 163.988 342.647 165.346C335.69 167.737 329.222 162.634 329.222 156.021C329.222 114.873 362.699 81.3944 403.847 81.3944C430.006 81.3944 453.772 94.8918 467.239 116.6C467.375 116.825 467.568 117.011 467.797 117.14C468.026 117.269 468.285 117.337 468.548 117.337C468.811 117.337 469.069 117.269 469.299 117.14C469.528 117.011 469.72 116.825 469.856 116.6C483.32 94.8891 507.087 81.3958 533.248 81.3958C574.395 81.3958 607.874 114.873 607.874 156.021C607.874 162.634 601.406 167.737 594.448 165.346Z" fill="#8CCC3A"/>
<path d="M694.455 300.445H602.384C599.11 300.445 595.928 298.988 594.031 296.32C592.656 294.407 592.007 292.068 592.198 289.721C592.389 287.373 593.408 285.17 595.074 283.505L667.883 210.692C668.847 209.729 668.163 208.081 666.799 208.081H608.306C602.872 208.081 598.132 203.893 597.971 198.461C597.931 197.133 598.157 195.81 598.637 194.571C599.118 193.332 599.842 192.202 600.767 191.248C601.692 190.294 602.799 189.536 604.023 189.018C605.247 188.5 606.562 188.233 607.891 188.233H694.162C697.435 188.233 700.615 189.692 702.514 192.358C703.888 194.271 704.538 196.61 704.347 198.958C704.156 201.306 703.137 203.509 701.471 205.174L628.663 277.985C627.698 278.949 628.382 280.597 629.743 280.597H694.039C699.472 280.597 704.212 284.787 704.375 290.219C704.416 291.547 704.189 292.869 703.709 294.108C703.228 295.347 702.504 296.477 701.579 297.431C700.654 298.385 699.546 299.143 698.323 299.661C697.099 300.179 695.784 300.445 694.455 300.445Z" fill="#FF3E5A"/>
<path d="M468.546 86.1598C445.301 62.9157 445.301 25.2278 468.546 1.98376C491.79 25.2278 491.79 62.9171 468.546 86.1598Z" fill="#8CCC3A"/>
<path d="M468.546 4.83976C447.982 26.8784 447.982 61.2638 468.546 83.3051C478.525 72.6184 483.996 58.7651 483.996 44.0717C483.996 29.3771 478.525 15.5264 468.546 4.83976ZM468.546 88.1451C468.038 88.1451 467.53 87.9504 467.142 87.5638C443.161 63.5824 443.161 24.5624 467.142 0.581095C467.515 0.209003 468.02 0 468.546 0C469.073 0 469.578 0.209003 469.95 0.581095C481.566 12.1971 487.964 27.6424 487.964 44.0717C487.964 60.4997 481.566 75.9464 469.95 87.5638C469.561 87.9504 469.053 88.1451 468.546 88.1451Z" fill="#8CCC3A"/>
</svg>
